<svg xmlns="http://www.w3.org/2000/svg" width="108" height="46" fill="none" viewBox="0 0 108 46"><path fill="#030a06" d="M19.084 3.356c-.203 0-.417 0-.618.024-2.333.194-4.477 1.186-6.004 2.991-1.662 1.965-2.063 4.035-2.044 6.537L5.973 12.9q-.3-.002-.614-.011c-.58-.017-1.182-.033-1.725.066-.328.06-.614.22-.844.46-.404.42-.414.95-.387 1.493.041.857.115 1.715.188 2.572q.061.7.115 1.398l.738 9.533.359 4.604q.025.341.046.687c.05.824.102 1.66.32 2.448a7.389 7.389 0 0 0 5.313 5.181c.996.24 2.154.214 3.24.188q.488-.014.947-.015l5.984-.002 5.227.002q.429.002.877.014c.965.023 1.971.047 2.873-.163 1.27-.296 2.553-.992 3.48-1.91.862-.856 1.55-1.998 1.852-3.178.23-.902.288-1.892.344-2.853q.026-.466.06-.915l.49-6.314.612-7.753q.046-.575.106-1.157c.083-.84.167-1.688.165-2.519-.001-.51-.11-.987-.475-1.367-.252-.261-.664-.389-1.013-.446-.522-.085-1.095-.07-1.65-.055q-.307.009-.603.011-2.097-.004-4.194.015h-.06c.032-2.678-.564-4.977-2.49-6.936a8.58 8.58 0 0 0-6.14-2.624zm8.472 15.28.076.004.008.021.009.021.003.008c.014.03.016.037.016.087-.024 3.285-.904 7.514-3.235 9.92-2.159 2.228-5.512 3.321-8.569 3.382 1.424-2.679 3.712-5.219 6.073-7.105a20 20 0 0 1 1.13-.82q.37-.252.734-.516c.235-.173.551-.406.584-.72.03-.29-.123-.515-.304-.721-.254-.148-.44-.21-.73-.124-.411.12-.826.425-1.2.7q-.15.11-.288.208a25.14 25.14 0 0 0-7.365 8.16c-.062-2.628.537-4.83 2.148-6.943 2.418-3.172 7.047-5.035 10.91-5.562m-23.495-4.09H34.09c-.107 1.011-.176 2.032-.245 3.051q-.056.852-.122 1.7l-.808 10.133-.303 3.733-.038.489c-.048.644-.097 1.294-.221 1.925-.128.647-.376 1.21-.711 1.774q-.195.295-.421.566c-.87 1.04-2.3 1.815-3.657 1.918-.739.056-1.5.042-2.253.028q-.489-.01-.972-.012l-6.23-.002-4.957.002q-.36.001-.728.01c-.752.016-1.522.032-2.244-.093a5.36 5.36 0 0 1-2.564-1.209 5.6 5.6 0 0 1-1.8-2.83c-.202-.733-.253-1.514-.302-2.28q-.019-.29-.04-.575l-.295-3.799zm24.162 2.33-.022.002c-4.559.527-9.748 2.402-12.694 6.095-1.894 2.373-2.929 5.46-2.587 8.499.075.667.226 1.305.444 1.94l-.089.225c-.374.94-1.243 3.125-.941 3.772a.74.74 0 0 0 .459.373q.12.036.243.05c.255-.043.49-.096.645-.324.165-.246.334-.836.478-1.34.07-.241.132-.462.187-.618.188-.532.4-1.055.613-1.578l.002-.006.075-.183c3.758.011 7.773-1.166 10.492-3.849 3.041-3 3.807-7.84 3.813-11.935 0-.323-.021-.706-.258-.953-.145-.152-.364-.198-.566-.193q-.147.005-.294.023M18.72 4.998a6 6 0 0 1 .437-.016c1.785.012 3.573.81 4.828 2.07 1.708 1.712 2.057 3.53 2.061 5.856l-6.542-.003-7.36.009c-.057-2 .265-3.825 1.577-5.403 1.26-1.517 3.057-2.34 4.998-2.513"/><path fill="#030a06" d="m27.632 18.64-.076-.004c-3.863.527-8.492 2.39-10.91 5.562-1.611 2.114-2.21 4.315-2.148 6.942a25.14 25.14 0 0 1 7.365-8.158q.14-.098.288-.209c.374-.274.789-.579 1.2-.7.29-.085.476-.023.73.124.181.207.335.431.305.72-.034.315-.35.549-.585.721q-.364.264-.734.517a20 20 0 0 0-1.13.819c-2.36 1.886-4.649 4.426-6.073 7.105 3.058-.06 6.41-1.154 8.57-3.382 2.33-2.406 3.21-6.635 3.234-9.92 0-.05-.002-.056-.016-.087l-.012-.028zm.569-1.762.022-.002c.098-.01.196-.021.294-.023.203-.005.421.041.567.193.236.247.258.63.258.953-.007 4.095-.773 8.935-3.814 11.936-2.719 2.683-6.733 3.86-10.492 3.848l-.075.184-.002.006a36 36 0 0 0-.612 1.578c-.055.155-.119.376-.187.617-.145.504-.314 1.095-.48 1.34-.153.229-.389.281-.644.323a1.3 1.3 0 0 1-.243-.049.74.74 0 0 1-.459-.373c-.302-.646.567-2.832.941-3.772l.09-.225a9 9 0 0 1-.445-1.94c-.341-3.04.693-6.126 2.587-8.5 2.946-3.692 8.136-5.567 12.694-6.094"/><path fill="#030a06" d="m28.223 16.876-.022.002c-4.558.527-9.748 2.402-12.694 6.095-1.894 2.373-2.928 5.46-2.587 8.5a9 9 0 0 0 .444 1.94l-.089.224c-.374.94-1.243 3.126-.94 3.772a.74.74 0 0 0 .458.373q.12.037.243.05c.255-.043.491-.095.645-.324.165-.245.334-.835.478-1.34.07-.24.133-.462.187-.617.188-.532.4-1.056.613-1.578l.002-.006.075-.184c3.758.011 7.773-1.165 10.492-3.848 3.041-3.001 3.807-7.84 3.813-11.936 0-.323-.021-.706-.258-.953-.145-.152-.363-.198-.566-.193a4 4 0 0 0-.294.023m-.667 1.76.076.005.008.02.012.029c.014.031.017.037.016.087-.024 3.285-.903 7.514-3.235 9.92-2.159 2.228-5.511 3.321-8.569 3.382 1.424-2.679 3.713-5.219 6.073-7.105.365-.292.747-.555 1.13-.819q.37-.253.734-.517c.235-.172.551-.406.585-.72.03-.29-.124-.514-.305-.721-.254-.147-.44-.209-.73-.124-.411.121-.826.425-1.2.7q-.15.11-.288.209a25.14 25.14 0 0 0-7.365 8.158c-.061-2.627.537-4.828 2.148-6.942 2.418-3.171 7.047-5.035 10.91-5.562M86.916 28.008a5.85 5.85 0 1 0-11.692.413 5.85 5.85 0 0 0 11.692-.413m-5.848-3.885c.942.038 1.705.265 2.423.9.856.758 1.333 1.852 1.395 2.985.063 1.134-.294 2.284-1.066 3.129-.706.772-1.586 1.117-2.617 1.169-.94-.01-1.717-.156-2.459-.774-.867-.72-1.357-1.788-1.45-2.903-.095-1.158.209-2.356.978-3.244.762-.881 1.664-1.184 2.796-1.262M70.657 27.523a5.846 5.846 0 1 0-11.61 1.39 5.846 5.846 0 0 0 11.61-1.39m-6.324-3.353c.936-.077 1.785.022 2.576.566.888.61 1.446 1.554 1.631 2.608.21 1.196.013 2.476-.707 3.473-.63.873-1.418 1.306-2.467 1.474-.958.049-1.805-.01-2.612-.58a3.96 3.96 0 0 1-1.627-2.603c-.196-1.16.039-2.494.73-3.459.61-.847 1.458-1.317 2.476-1.48M99.18 22.36l-.086.007c-1.473.174-2.799.887-3.725 2.055-1.056 1.335-1.418 3.026-1.21 4.7a5.54 5.54 0 0 0 2.088 3.721c1.38 1.073 3.13 1.345 4.835 1.112.987-.135 2.47-.608 3.1-1.429.178-.23.267-.512.226-.803a.78.78 0 0 0-.286-.525c-.194-.144-.452-.162-.681-.117-.319.062-.605.26-.877.447q-.085.06-.169.115c-1.191.62-2.512.91-3.822.486a3.65 3.65 0 0 1-2.135-1.857c-.226-.45-.339-.928-.439-1.419h5.621c.233 0 .484.008.742.017.667.021 1.38.044 1.968-.061a.9.9 0 0 0 .45-.239c.276-.269.325-.65.317-1.018-.032-1.408-.693-2.797-1.717-3.75-1.183-1.1-2.609-1.513-4.2-1.442m.173 1.76c.853-.1 1.714.117 2.417.612.84.597 1.281 1.445 1.458 2.443-.712.009-1.426.007-2.139.005l-1.069-.002-3.953.005c.181-.608.391-1.16.78-1.67.627-.82 1.494-1.26 2.506-1.393"/><path fill="#030a06" d="M67.877 18.18c2.11-.05 4.23-.003 6.342-.007 1.202-.002 2.738-.1 3.905.02.188.02.337.073.48.198.203.178.339.445.346.717.006.245-.144.526-.321.69-.135.125-.296.175-.474.204-.486.078-1.022.033-1.515.032l-2.62-.005v9.72c.003.82.107 2.606-.016 3.303a1.2 1.2 0 0 1-.27.605.85.85 0 0 1-.625.276c-.251.005-.497-.05-.679-.233-.213-.214-.292-.53-.318-.822-.048-.54-.004-1.11.002-1.652.01-.802.002-1.605.002-2.407l.006-8.791c-.871.004-3.886.143-4.504-.137a.8.8 0 0 1-.449-.495.91.91 0 0 1 .079-.745c.148-.268.345-.383.629-.47M54.078 22.368c.783-.045 1.55.005 2.31.209.803.215 2.032.689 2.448 1.451.114.21.173.461.093.694-.083.236-.308.417-.534.51-.66.27-1.488-.64-2.11-.874-1.01-.38-2.226-.36-3.21.1-.903.421-1.553 1.22-1.89 2.148-.39 1.077-.423 2.481.073 3.531.46.973 1.305 1.653 2.308 2.007 1.148.406 2.344.19 3.417-.324.332-.18.634-.42 1.013-.499a.7.7 0 0 1 .555.097c.206.142.372.424.399.672.025.233-.065.448-.21.627-.627.778-2.024 1.169-2.975 1.285-1.65.203-3.368-.128-4.688-1.18a5.76 5.76 0 0 1-2.186-3.974 5.97 5.97 0 0 1 1.275-4.352 5.74 5.74 0 0 1 3.912-2.128M89.315 19.417l.098-.004c.293-.01.587.069.793.285.493.515.297 2.25.292 2.962.671.004 2.305-.205 2.809.243.182.162.256.387.257.627 0 .232-.06.455-.232.62-.47.445-2.17.27-2.835.265.006 1.428-.187 5.829.253 6.912.711 1.751 2.253.21 3.132.625a.85.85 0 0 1 .412.47c.1.278.011.526-.103.781l-.059.064c-.53.553-1.529.687-2.262.697-.85.012-1.654-.132-2.282-.761-.454-.455-.736-1.08-.875-1.7-.213-.96-.125-2.022-.124-3l.002-4.086q-.774 0-1.548-.013a1.7 1.7 0 0 1-.243-.175c-.203-.183-.296-.457-.303-.727a.78.78 0 0 1 .231-.605c.417-.386 1.333-.248 1.863-.238-.001-.744-.164-2.076.116-2.73.125-.29.329-.396.608-.512"/><path fill="#030a06" fill-rule="evenodd" d="M48.395 19.138c-.89-.087-5.239-.056-6.748-.034-.277.004-.535.023-.76.04a8 8 0 0 1-.503.027s-.6.14-.795.411c-.127.177-.17.402-.201.614-.161 1.123-.256 2.27-.35 3.412-.05.602-.099 1.202-.158 1.797l-.572 5.777c-.015.154-.042.365-.072.604-.097.774-.23 1.846-.144 2.272a.8.8 0 0 0 .382.555c.207.122.44.19.675.23h.002c.485 0 1.217.007 2.035.016 1.695.017 6.006.039 7.009-.005.2-.008.411-.025.6-.096a.95.95 0 0 0 .56-.534c.102-.257.08-.544-.035-.791a.8.8 0 0 0-.53-.467h-8.665q.216-1.914.388-3.831l.102-1.04.01-.103.263.004c.882.013 5.178.044 5.725-.037.2-.03.388-.08.535-.229a.94.94 0 0 0 .254-.723.93.93 0 0 0-.285-.624.8.8 0 0 0-.408-.188c-.512-.074-4.33-.054-5.295-.042l-.612.007.44-5.183h4.675c.238 0 .487.009.739.017.61.02 1.243.04 1.81-.048a.9.9 0 0 0 .521-.248.95.95 0 0 0 .264-.705.924.924 0 0 0-.856-.855" clip-rule="evenodd"/></svg>