<svg xmlns="http://www.w3.org/2000/svg" width="273" height="102" fill="none" viewBox="0 0 273 102"><path fill="#030a06" d="M44.888.856c-.536 0-1.102 0-1.633.064-6.166.514-11.833 3.134-15.869 7.906-4.391 5.193-5.453 10.665-5.402 17.277l-11.748-.018c-.527 0-1.07-.016-1.622-.031-1.533-.043-3.125-.087-4.561.176a4.08 4.08 0 0 0-2.23 1.214C.755 28.554.73 29.956.8 31.392c.109 2.265.303 4.533.498 6.798.105 1.232.211 2.464.303 3.695L3.55 67.08 4.5 79.248q.067.901.121 1.816c.134 2.178.27 4.387.845 6.47a19.64 19.64 0 0 0 5.68 9.213 19.5 19.5 0 0 0 8.363 4.481c2.633.636 5.693.564 8.567.496.855-.02 1.694-.04 2.5-.04l15.817-.005 13.813.006c.755 0 1.531.019 2.318.037 2.551.061 5.21.124 7.595-.432 3.354-.78 6.748-2.622 9.197-5.05 2.279-2.26 4.1-5.278 4.895-8.396.608-2.386.761-5.002.91-7.54.047-.819.094-1.63.156-2.42l1.297-16.688 1.616-20.49c.079-1.012.18-2.035.281-3.06.22-2.221.441-4.46.436-6.655-.002-1.35-.288-2.61-1.256-3.613-.666-.692-1.754-1.029-2.675-1.18-1.381-.224-2.896-.184-4.36-.145-.542.014-1.077.028-1.596.029q-5.542-.011-11.086.039l-.159.002c.087-7.08-1.489-13.156-6.58-18.334A22.69 22.69 0 0 0 44.966.855zm22.393 40.386.199.012.015.037.007.018.023.055.009.02c.036.082.043.097.041.23-.064 8.683-2.388 19.86-8.55 26.219C53.32 73.72 44.46 76.61 36.379 76.77c3.764-7.08 9.812-13.793 16.05-18.78.966-.77 1.976-1.466 2.986-2.163a82 82 0 0 0 1.941-1.367c.621-.455 1.457-1.073 1.545-1.904.08-.765-.326-1.358-.805-1.905-.671-.389-1.162-.55-1.928-.326-1.088.32-2.184 1.124-3.173 1.85-.262.192-.517.38-.762.55A66.45 66.45 0 0 0 32.767 74.29c-.162-6.944 1.42-12.761 5.678-18.347 6.391-8.383 18.624-13.31 28.836-14.7M5.182 30.434l79.366-.002c-.282 2.673-.464 5.37-.647 8.064-.1 1.5-.202 3-.32 4.494l-2.138 26.78-.799 9.868q-.053.643-.1 1.29c-.129 1.703-.258 3.421-.587 5.088-.337 1.71-.992 3.198-1.879 4.69a17 17 0 0 1-1.112 1.496c-2.3 2.75-6.077 4.797-9.665 5.069-1.953.147-3.963.11-5.954.073-.862-.015-1.72-.031-2.57-.032l-16.465-.005-13.103.006c-.632 0-1.275.014-1.923.027-1.987.041-4.022.084-5.932-.246a14.15 14.15 0 0 1-6.776-3.195 14.8 14.8 0 0 1-4.755-7.482c-.536-1.937-.67-4-.8-6.026q-.048-.764-.105-1.517l-.78-10.04zm63.86 6.155-.058.006c-12.048 1.394-25.763 6.35-33.55 16.108-5.005 6.272-7.74 14.43-6.837 22.464.198 1.764.598 3.45 1.174 5.128l-.235.594c-.989 2.485-3.287 8.26-2.488 9.97.231.493.702.824 1.213.986.21.066.422.104.641.13.675-.111 1.299-.25 1.705-.854.437-.65.883-2.21 1.265-3.544a33 33 0 0 1 .495-1.63c.495-1.407 1.056-2.79 1.618-4.17l.006-.017.197-.485c9.935.03 20.545-3.08 27.732-10.171 8.038-7.932 10.062-20.722 10.078-31.546.001-.854-.057-1.866-.682-2.52-.383-.4-.961-.521-1.498-.51a9 9 0 0 0-.775.061M43.923 5.196c.385-.023.771-.045 1.156-.042 4.72.033 9.444 2.143 12.76 5.469 4.515 4.528 5.439 9.334 5.448 15.48l-17.289-.01-19.455.025c-.149-5.283.702-10.109 4.168-14.28 3.33-4.008 8.082-6.183 13.212-6.642"/><path fill="#030a06" d="m67.48 41.253-.2-.011c-10.21 1.391-22.444 6.318-28.835 14.7-4.259 5.586-5.84 11.404-5.678 18.348a66.45 66.45 0 0 1 19.465-21.564c.245-.17.5-.358.762-.55.989-.726 2.085-1.531 3.172-1.85.767-.225 1.258-.063 1.929.326.479.547.885 1.14.805 1.905-.088.83-.924 1.449-1.545 1.904-.639.47-1.29.918-1.94 1.367-1.011.697-2.021 1.393-2.986 2.164-6.239 4.986-12.287 11.7-16.051 18.778 8.08-.16 16.942-3.05 22.648-8.937 6.161-6.359 8.485-17.537 8.549-26.219.002-.133-.005-.148-.041-.23q-.014-.03-.032-.075zm1.504-4.658.059-.006a9 9 0 0 1 .775-.06c.537-.013 1.115.108 1.498.51.625.652.683 1.665.682 2.519-.016 10.823-2.04 23.614-10.078 31.545-7.187 7.092-17.797 10.201-27.732 10.172l-.197.485-.006.016c-.562 1.381-1.124 2.764-1.619 4.17-.144.41-.312.995-.494 1.63-.382 1.335-.828 2.895-1.265 3.545-.406.603-1.03.743-1.705.854a3.5 3.5 0 0 1-.641-.13c-.51-.162-.982-.493-1.213-.987-.8-1.708 1.499-7.484 2.488-9.97q.136-.341.235-.593a24 24 0 0 1-1.174-5.128c-.903-8.033 1.831-16.192 6.837-22.464 7.787-9.759 21.502-14.714 33.55-16.108"/><path fill="#030a06" d="m69.043 36.589-.059.006c-12.047 1.394-25.763 6.35-33.55 16.108-5.005 6.272-7.74 14.43-6.836 22.464a24 24 0 0 0 1.173 5.128l-.235.594c-.989 2.485-3.287 8.26-2.487 9.969.23.494.702.825 1.212.987.21.066.423.104.642.13.675-.111 1.298-.25 1.705-.854.436-.65.883-2.209 1.265-3.543.182-.636.35-1.22.494-1.632.495-1.406 1.057-2.789 1.618-4.17l.204-.501c9.934.03 20.545-3.08 27.732-10.172 8.037-7.931 10.062-20.722 10.078-31.545 0-.854-.058-1.867-.682-2.52-.384-.4-.962-.522-1.498-.51-.259.006-.518.033-.776.06m-1.762 4.653.2.011.021.056.032.074c.037.083.043.098.041.231-.063 8.682-2.387 19.86-8.549 26.219C53.32 73.72 44.46 76.61 36.38 76.77c3.763-7.079 9.812-13.792 16.05-18.778.965-.77 1.975-1.467 2.986-2.164.65-.449 1.302-.898 1.94-1.367.622-.455 1.457-1.073 1.545-1.904.08-.765-.326-1.358-.805-1.905-.67-.389-1.162-.551-1.928-.326-1.088.319-2.184 1.124-3.173 1.85-.262.192-.517.38-.761.55A66.45 66.45 0 0 0 32.768 74.29c-.163-6.944 1.419-12.762 5.677-18.347 6.392-8.383 18.625-13.31 28.836-14.701M224.168 66.01c-.302-8.534-7.462-15.206-15.995-14.907-8.535.299-15.21 7.463-14.909 15.996.301 8.535 7.465 15.21 15.998 14.908 8.534-.303 15.207-7.465 14.906-15.997M208.71 55.742c2.49.101 4.507.7 6.405 2.38 2.261 2.002 3.522 4.893 3.687 7.888.166 2.998-.777 6.036-2.818 8.27-1.864 2.04-4.19 2.953-6.915 3.09-2.487-.026-4.538-.414-6.5-2.045-2.291-1.906-3.586-4.728-3.83-7.672-.253-3.062.549-6.228 2.582-8.576 2.016-2.329 4.397-3.13 7.389-3.335M181.197 64.73c-1.017-8.487-8.728-14.535-17.211-13.502-8.461 1.03-14.49 8.716-13.476 17.18 1.015 8.462 8.689 14.505 17.154 13.507 8.487-1.002 14.55-8.701 13.533-17.186m-16.716-8.863c2.475-.202 4.718.059 6.808 1.497 2.347 1.614 3.823 4.107 4.311 6.892.554 3.163.034 6.545-1.869 9.18-1.666 2.308-3.747 3.453-6.52 3.895-2.533.13-4.77-.025-6.903-1.534a10.45 10.45 0 0 1-4.3-6.879c-.517-3.064.102-6.59 1.931-9.14 1.608-2.24 3.853-3.481 6.542-3.91M256.582 51.085a3 3 0 0 0-.228.018c-3.892.46-7.397 2.343-9.844 5.432-2.792 3.527-3.75 7.998-3.199 12.42a14.64 14.64 0 0 0 5.518 9.837c3.648 2.834 8.273 3.554 12.78 2.938 2.608-.357 6.527-1.606 8.194-3.776.469-.61.705-1.354.597-2.123-.076-.54-.313-1.056-.758-1.387-.511-.38-1.192-.428-1.799-.31-.843.165-1.599.686-2.316 1.18q-.227.158-.449.306c-3.147 1.636-6.638 2.405-10.101 1.283a9.65 9.65 0 0 1-5.643-4.908c-.598-1.19-.895-2.454-1.159-3.75h14.855c.618 0 1.281.022 1.963.044 1.761.056 3.647.117 5.201-.161.443-.08.866-.316 1.188-.63.73-.712.86-1.719.838-2.69-.083-3.722-1.831-7.394-4.538-9.911-3.126-2.908-6.896-4.001-11.1-3.812m.458 4.65a9.23 9.23 0 0 1 6.386 1.618c2.221 1.579 3.388 3.82 3.855 6.458-1.883.022-3.768.017-5.653.012q-1.414-.004-2.826-.004l-10.447.014c.478-1.608 1.033-3.068 2.061-4.414 1.656-2.17 3.949-3.332 6.624-3.684"/><path fill="#030a06" d="M173.848 40.037c5.576-.132 11.182-.01 16.761-.02 3.178-.005 7.237-.262 10.322.055.496.052.892.193 1.269.522.537.47.895 1.177.914 1.894.016.648-.381 1.39-.848 1.825-.357.33-.783.462-1.253.539-1.284.207-2.702.086-4.005.084l-6.922-.012-.003 25.69c.01 2.165.284 6.888-.042 8.73-.103.577-.312 1.154-.711 1.597-.428.476-1.018.716-1.653.73-.665.014-1.314-.132-1.794-.616-.564-.565-.772-1.398-.841-2.171-.128-1.426-.011-2.935.005-4.368.025-2.12.006-4.24.004-6.36l.017-23.236c-2.303.01-10.272.377-11.903-.363-.597-.27-.971-.687-1.187-1.307-.231-.66-.126-1.363.208-1.968.39-.71.911-1.013 1.662-1.245M137.377 51.104c2.071-.117 4.095.015 6.106.553 2.123.569 5.371 1.822 6.469 3.836.302.555.459 1.22.246 1.833-.218.625-.812 1.104-1.411 1.35-1.746.715-3.933-1.691-5.576-2.31-2.671-1.008-5.884-.952-8.484.262-2.388 1.115-4.105 3.226-4.994 5.679-1.032 2.846-1.119 6.558.191 9.332 1.215 2.571 3.45 4.368 6.101 5.304 3.034 1.073 6.194.502 9.029-.857.879-.476 1.676-1.11 2.677-1.317.518-.106 1.028-.05 1.469.255.543.376.982 1.12 1.054 1.778.068.616-.172 1.183-.554 1.656-1.659 2.055-5.35 3.089-7.863 3.397-4.36.534-8.902-.34-12.392-3.122a15.23 15.23 0 0 1-5.776-10.502 15.8 15.8 0 0 1 3.37-11.501c2.626-3.23 6.21-5.184 10.338-5.626M230.509 43.305l.259-.011c.773-.025 1.55.183 2.096.752 1.304 1.362.786 5.95.771 7.83 1.774.01 6.093-.542 7.424.641.481.43.677 1.024.678 1.658.003.615-.156 1.204-.613 1.637-1.243 1.178-5.732.715-7.492.704.016 3.773-.494 15.404.669 18.266 1.88 4.63 5.955.558 8.279 1.653.497.234.905.729 1.089 1.244.262.733.029 1.39-.273 2.063l-.155.169c-1.404 1.462-4.042 1.814-5.979 1.841-2.248.033-4.373-.349-6.033-2.012-1.2-1.202-1.946-2.852-2.311-4.493-.564-2.535-.331-5.342-.33-7.928l.007-10.8q-2.046 0-4.091-.032a4.5 4.5 0 0 1-.642-.464c-.539-.485-.784-1.209-.803-1.922-.016-.597.166-1.186.612-1.599 1.101-1.02 3.524-.654 4.924-.63-.004-1.964-.435-5.486.307-7.215.329-.767.868-1.045 1.607-1.352"/><path fill="#030a06" fill-rule="evenodd" d="M122.356 42.568c-2.349-.231-13.846-.15-17.834-.09-.734.01-1.414.06-2.011.104-.508.038-.957.07-1.327.071 0 0-1.587.373-2.102 1.088-.336.468-.451 1.062-.531 1.621-.427 2.97-.676 6-.924 9.02-.131 1.59-.262 3.177-.418 4.75L95.697 74.4c-.04.408-.11.965-.19 1.597-.256 2.045-.61 4.878-.381 6.005.127.625.458 1.141 1.01 1.467.546.321 1.163.504 1.784.61h.006c1.282-.004 3.216.016 5.377.039 4.481.046 15.875.103 18.524-.011.529-.023 1.089-.068 1.587-.256.668-.254 1.218-.738 1.482-1.411.267-.678.208-1.437-.094-2.092-.304-.66-.714-1.011-1.402-1.232h-22.901q.573-5.058 1.025-10.127l.27-2.747.026-.272.695.01c2.332.035 13.685.117 15.131-.1.531-.078 1.027-.212 1.416-.603.502-.507.711-1.208.67-1.911-.036-.597-.3-1.248-.754-1.65a2.06 2.06 0 0 0-1.079-.496c-1.352-.197-11.445-.143-13.993-.11-.683.008-1.251.015-1.618.016l1.161-13.696h12.358c.631 0 1.287.021 1.953.043 1.613.051 3.285.105 4.785-.128.533-.081.991-.264 1.378-.653.474-.475.733-1.195.696-1.863-.037-.681-.404-1.33-.937-1.749-.406-.319-.817-.462-1.326-.511" clip-rule="evenodd"/></svg>